<svg width="255" height="244" viewBox="0 0 255 244" fill="none" xmlns="http://www.w3.org/2000/svg">
<path d="M176.414 243.578H94.1338C84.1934 243.532 75.792 235.056 75.8322 225.116L76.7108 17.8999C76.7381 13.1282 78.6588 8.56248 82.0507 5.20611C85.4426 1.84975 90.0282 -0.0227022 94.8 0.000207781L177.447 0.350507C182.223 0.371784 186.794 2.28878 190.156 5.67992C193.518 9.07107 195.396 13.6587 195.376 18.4339L194.497 225.65C194.488 228.015 194.013 230.355 193.099 232.536C192.185 234.717 190.851 236.697 189.171 238.362C187.492 240.027 185.501 241.345 183.312 242.24C181.123 243.135 178.779 243.59 176.414 243.578Z" fill="#263238"/>
<path d="M176.985 8.46819L160.957 8.39353C159.907 8.41316 158.908 8.84643 158.175 9.59916C157.443 10.3519 157.037 11.3632 157.047 12.4134V15.3191C157.059 16.3691 156.655 17.3814 155.923 18.1346C155.192 18.8878 154.192 19.3208 153.142 19.3389L121.902 19.1954C120.847 19.1668 119.846 18.7209 119.12 17.9554C118.393 17.19 118 16.1675 118.026 15.1124V12.2066C118.044 11.153 117.649 10.1342 116.924 9.36953C116.199 8.60482 115.203 8.15536 114.15 8.11789H108.51L94.4869 8.05472C92.8278 8.05095 91.1842 8.37399 89.6499 9.00541C88.1157 9.63683 86.7209 10.5643 85.5451 11.7347C84.3692 12.9052 83.4355 14.2958 82.7971 15.8272C82.1587 17.3585 81.8282 19.0006 81.8244 20.6597L80.9688 222.92C80.9611 226.261 82.2778 229.47 84.6305 231.843C86.9832 234.216 90.1804 235.561 93.5221 235.582L176.009 235.961C179.357 235.97 182.573 234.65 184.948 232.289C187.324 229.929 188.665 226.722 188.677 223.373L189.533 21.1134C189.536 17.7756 188.218 14.5722 185.867 12.2029C183.516 9.83361 180.323 8.49094 176.985 8.46819Z" fill="#E0E0E0"/>
<path d="M188.93 95.3438H80.9688V137.839H188.93V95.3438Z" fill="#F5F5F5"/>
<path d="M151.137 33.4754C151.137 33.5558 137.228 33.6247 120.075 33.6247C102.922 33.6247 89.0078 33.5558 89.0078 33.4754C89.0078 33.395 102.916 33.3203 120.075 33.3203C137.234 33.3203 151.137 33.3892 151.137 33.4754Z" fill="#263238"/>
<path d="M151.137 114.444C151.137 114.525 137.228 114.593 120.075 114.593C102.922 114.593 89.0078 114.525 89.0078 114.444C89.0078 114.364 102.916 114.289 120.075 114.289C137.234 114.289 151.137 114.358 151.137 114.444Z" fill="#263238"/>
<path d="M151.137 122.483C151.137 122.564 137.228 122.632 120.075 122.632C102.922 122.632 89.0078 122.564 89.0078 122.483C89.0078 122.403 102.916 122.328 120.075 122.328C137.234 122.328 151.137 122.397 151.137 122.483Z" fill="#263238"/>
<path d="M117.147 37.6309C117.147 37.7855 110.847 37.918 103.078 37.918C95.3097 37.918 89.0078 37.7855 89.0078 37.6309C89.0078 37.4763 95.3071 37.3438 103.078 37.3438C110.85 37.3438 117.147 37.4763 117.147 37.6309Z" fill="#263238"/>
<path d="M117.147 118.6C117.147 118.754 110.847 118.887 103.078 118.887C95.3097 118.887 89.0078 118.754 89.0078 118.6C89.0078 118.445 95.3071 118.312 103.078 118.312C110.85 118.312 117.147 118.445 117.147 118.6Z" fill="#263238"/>
<path d="M144.711 88.1621C144.711 88.3167 132.241 88.4493 116.862 88.4493C101.483 88.4493 89.0078 88.3167 89.0078 88.1621C89.0078 88.0075 101.478 87.875 116.862 87.875C132.246 87.875 144.711 88.0075 144.711 88.1621Z" fill="#263238"/>
<path d="M144.711 146.17C144.711 146.325 132.241 146.457 116.862 146.457C101.483 146.457 89.0078 146.325 89.0078 146.17C89.0078 146.015 101.478 145.883 116.862 145.883C132.246 145.883 144.711 146.015 144.711 146.17Z" fill="#263238"/>
<path d="M143.562 47.6797H94.7504C91.5789 47.6797 89.0078 50.2507 89.0078 53.4223V74.0956C89.0078 77.2672 91.5789 79.8382 94.7504 79.8382H143.562C146.734 79.8382 149.305 77.2672 149.305 74.0956V53.4223C149.305 50.2507 146.734 47.6797 143.562 47.6797Z" fill="white"/>
<path d="M143.562 154.484H94.7504C91.5789 154.484 89.0078 157.055 89.0078 160.227V192.386C89.0078 195.557 91.5789 198.128 94.7504 198.128H143.562C146.734 198.128 149.305 195.557 149.305 192.386V160.227C149.305 157.055 146.734 154.484 143.562 154.484Z" fill="#EAEAEA"/>
<path d="M152.18 53.4223C152.18 50.2507 154.751 47.6797 157.922 47.6797H189.507V79.8382H157.922C154.751 79.8382 152.18 77.2672 152.18 74.0956V53.4223Z" fill="white"/>
<path d="M151.605 160.227C151.605 157.055 154.177 154.484 157.348 154.484H188.932V198.128H157.348C154.177 198.128 151.605 195.557 151.605 192.386V160.227Z" fill="#EAEAEA"/>
<path d="M188.355 223.401C188.355 230.062 182.956 235.461 176.296 235.461L93.0284 235.461C86.3681 235.461 80.9689 230.062 80.9689 223.401L80.9689 211.342L188.355 211.342L188.355 223.401Z" fill="#F5F5F5"/>
<path d="M40.253 218.59L31.2256 230.46L26.7923 241.911C26.7161 242.106 26.6008 242.283 26.4535 242.431C26.3062 242.58 26.13 242.697 25.9358 242.775C25.7416 242.853 25.5335 242.89 25.3242 242.885C25.115 242.88 24.9091 242.831 24.7193 242.743C24.4978 242.641 24.3043 242.487 24.1552 242.294C24.0062 242.101 23.9062 241.875 23.8636 241.635C23.2894 238.534 21.2909 227.106 22.003 226.273C22.8242 225.309 30.6973 213.117 30.6973 213.117L40.253 218.59Z" fill="#3AB7E9"/>
<g opacity="0.6">
<path d="M24.7169 242.754L22.5922 225.469L22.2189 225.98C21.8984 226.422 21.7457 226.963 21.7882 227.507C21.8973 228.966 22.2993 232.98 23.8211 241.617C23.864 241.867 23.9682 242.103 24.1246 242.304C24.2809 242.504 24.4844 242.663 24.7169 242.765V242.754Z" fill="white"/>
</g>
<g opacity="0.6">
<path d="M27.8972 223.389C27.9729 223.609 27.9629 223.849 27.8692 224.062C27.7755 224.275 27.6051 224.445 27.3919 224.538C27.1739 224.623 26.9312 224.619 26.7163 224.526C26.5014 224.434 26.3314 224.26 26.2433 224.044C26.172 223.814 26.1876 223.566 26.2871 223.347C26.3866 223.127 26.5631 222.953 26.7831 222.855C27.0144 222.798 27.2588 222.832 27.4652 222.951C27.6717 223.07 27.8244 223.264 27.8915 223.492" fill="white"/>
</g>
<path d="M25.7796 235.447C26.3375 235.28 26.9224 235.221 27.5024 235.275C28.0795 235.419 28.6235 235.672 29.1046 236.022C29.1046 236.022 29.0529 235.792 28.7945 235.551C28.454 235.244 28.0305 235.044 27.5771 234.977C27.1223 234.893 26.653 234.945 26.2276 235.126C25.906 235.269 25.7567 235.447 25.7796 235.447Z" fill="#263238"/>
<path d="M25.4727 237.71C25.9595 237.766 26.4427 237.851 26.9198 237.962C27.3628 238.171 27.7925 238.407 28.2061 238.669C28.2865 238.629 27.8903 237.951 27.0232 237.658C26.7798 237.541 26.5116 237.484 26.2415 237.493C25.9715 237.502 25.7077 237.576 25.4727 237.71Z" fill="#263238"/>
<path d="M25.6875 232.236C26.4448 232.259 27.1992 232.339 27.9443 232.477C28.665 232.717 29.3658 233.012 30.0404 233.361C29.536 232.733 28.8227 232.307 28.0305 232.161C27.2661 231.902 26.4339 231.929 25.6875 232.236Z" fill="#263238"/>
<path d="M28.1367 228.391C28.1367 228.489 28.9809 228.696 29.8595 229.293C30.7381 229.89 31.2837 230.596 31.3641 230.539C31.1136 229.892 30.6442 229.354 30.0375 229.017C29.4941 228.597 28.8232 228.377 28.1367 228.391Z" fill="#263238"/>
<path d="M30.6953 224.846C31.3434 225.056 31.9598 225.353 32.5272 225.73C33.0348 226.187 33.4755 226.713 33.8365 227.292C33.8767 227.292 33.8365 227.034 33.6929 226.672C33.4708 226.203 33.1425 225.792 32.7339 225.472C32.3248 225.15 31.8442 224.931 31.3327 224.834C30.9422 224.765 30.6953 224.805 30.6953 224.846Z" fill="#263238"/>
<path d="M32.9969 225.045C32.9969 225.045 33.1577 224.913 33.3414 224.603C33.6068 224.154 33.7787 223.656 33.8468 223.139C33.9323 222.767 33.8919 222.377 33.7319 222.031C33.6685 221.921 33.5725 221.834 33.4572 221.781C33.3419 221.729 33.2131 221.714 33.0888 221.738C32.8542 221.799 32.6501 221.944 32.5145 222.145C32.2493 222.572 32.1403 223.077 32.2063 223.574C32.2723 224.072 32.5091 224.531 32.8763 224.873C33.2466 225.204 33.707 225.417 34.1988 225.486C34.6907 225.554 35.1918 225.475 35.6385 225.258C35.7513 225.2 35.8506 225.119 35.9298 225.02C36.009 224.921 36.0663 224.806 36.0979 224.684C36.1165 224.557 36.0949 224.428 36.0361 224.315C35.9774 224.202 35.8845 224.11 35.7706 224.052C35.4266 223.906 35.0509 223.851 34.6795 223.891C34.1622 223.917 33.6533 224.032 33.1749 224.23C32.8361 224.374 32.6753 224.5 32.6868 224.517C33.329 224.285 34.0029 224.151 34.6852 224.121C35.0098 224.101 35.3345 224.158 35.6327 224.287C35.6959 224.318 35.7474 224.368 35.7795 224.43C35.8117 224.492 35.8226 224.563 35.8108 224.632C35.7837 224.709 35.7412 224.78 35.6859 224.84C35.6307 224.9 35.5637 224.949 35.4892 224.982C35.0982 225.157 34.6651 225.216 34.2416 225.152C33.818 225.088 33.4218 224.904 33.1002 224.621C32.7944 224.331 32.5947 223.947 32.5333 223.531C32.4718 223.114 32.5522 222.689 32.7614 222.324C32.8527 222.179 32.9936 222.073 33.1577 222.025C33.2258 222.011 33.2964 222.019 33.3601 222.046C33.4238 222.074 33.4774 222.121 33.5137 222.18C33.6466 222.475 33.6866 222.803 33.6286 223.122C33.5318 223.795 33.3181 224.446 32.9969 225.045Z" fill="#263238"/>
<path d="M49.6524 224.921L50.5712 237.05C50.5712 237.05 38.5117 241.167 38.5117 243.43L62.1081 243.372L61.4534 224.422L49.6524 224.921Z" fill="#3AB7E9"/>
<g opacity="0.6">
<path d="M57.8165 235.741C58.0457 235.802 58.2443 235.945 58.3746 236.143C58.5049 236.341 58.5577 236.58 58.5229 236.815C58.4717 237.047 58.3335 237.25 58.1368 237.382C57.9402 237.515 57.7001 237.567 57.4662 237.527C57.2214 237.463 57.0095 237.31 56.8723 237.097C56.7351 236.884 56.6827 236.628 56.7254 236.379C56.8021 236.148 56.9635 235.956 57.1769 235.841C57.3903 235.726 57.6395 235.696 57.874 235.758" fill="white"/>
</g>
<g opacity="0.6">
<path d="M62.0784 243.375L62.0095 241.469L39.2286 242.342C38.989 242.467 38.7847 242.65 38.6342 242.875C38.4838 243.1 38.3919 243.359 38.3672 243.628L62.0784 243.375Z" fill="white"/>
</g>
<path d="M50.1845 236.937C50.1845 237.052 50.7587 237.087 51.333 237.431C51.9073 237.776 52.2346 238.252 52.338 238.201C52.4413 238.149 52.2403 237.494 51.534 237.087C50.8277 236.679 50.1558 236.834 50.1845 236.937Z" fill="#263238"/>
<path d="M47.7539 238.06C47.7539 238.169 48.2363 238.347 48.6497 238.818C49.0632 239.289 49.1896 239.8 49.3044 239.789C49.4193 239.777 49.4652 239.128 48.9484 238.548C48.4315 237.968 47.7539 237.951 47.7539 238.06Z" fill="#263238"/>
<path d="M46.4702 241.076C46.5736 241.076 46.7114 240.502 46.3898 239.893C46.0682 239.284 45.5227 239.049 45.4767 239.146C45.4308 239.244 45.7811 239.566 46.051 240.077C46.3209 240.588 46.3554 241.064 46.4702 241.076Z" fill="#263238"/>
<path d="M50.2777 234.147C50.3294 234.251 50.852 234.072 51.5067 234.09C52.1613 234.107 52.6552 234.291 52.7298 234.193C52.8045 234.095 52.2819 233.699 51.5124 233.688C50.7429 233.676 50.2203 234.061 50.2777 234.147Z" fill="#263238"/>
<g opacity="0.3">
<path d="M49.8398 227.317L50.0006 229.476L61.5835 228.908L61.5203 226.961L49.8398 227.317Z" fill="black"/>
</g>
<path d="M50.1445 231.709C50.5351 231.795 50.9415 231.775 51.3218 231.652C51.7451 231.56 52.1558 231.417 52.5449 231.227C52.7748 231.114 52.9956 230.983 53.2053 230.836C53.3371 230.76 53.4555 230.663 53.5556 230.549C53.6232 230.461 53.6598 230.353 53.6598 230.242C53.6598 230.131 53.6232 230.023 53.5556 229.934C53.4953 229.857 53.4178 229.794 53.3291 229.751C53.2404 229.708 53.143 229.686 53.0445 229.688C52.8944 229.696 52.7459 229.723 52.6024 229.768C52.3535 229.841 52.1115 229.935 51.8788 230.049C51.4871 230.245 51.1286 230.501 50.8164 230.807C50.2938 231.336 50.1216 231.772 50.1618 231.795C50.202 231.818 50.4661 231.456 51.0059 231.02C51.3228 230.765 51.67 230.551 52.0396 230.382C52.2552 230.287 52.4779 230.208 52.7057 230.147C52.9527 230.072 53.1651 230.061 53.234 230.147C53.303 230.233 53.2628 230.204 53.234 230.279C53.1587 230.362 53.0717 230.434 52.9756 230.492C52.7793 230.63 52.5762 230.758 52.3669 230.876C51.9997 231.072 51.6152 231.233 51.2184 231.359C50.8519 231.448 50.4929 231.565 50.1445 231.709Z" fill="#263238"/>
<path d="M50.2952 231.856C50.5046 231.512 50.5973 231.109 50.5594 230.708C50.563 230.27 50.4912 229.835 50.3469 229.421C50.2628 229.175 50.1531 228.938 50.0196 228.715C49.9512 228.56 49.8437 228.426 49.7078 228.325C49.5719 228.225 49.4122 228.161 49.2443 228.141C49.1396 228.149 49.0392 228.186 48.9541 228.248C48.8691 228.31 48.8026 228.394 48.7619 228.491C48.7086 228.631 48.6739 228.778 48.6586 228.927C48.6273 229.193 48.637 229.463 48.6873 229.726C48.7787 230.166 48.9758 230.578 49.2615 230.926C49.7439 231.5 50.232 231.632 50.2378 231.598C50.2435 231.563 49.8645 231.328 49.4913 230.759C49.2729 230.429 49.1298 230.054 49.072 229.662C49.038 229.436 49.038 229.206 49.072 228.979C49.072 228.726 49.1869 228.52 49.2788 228.543C49.3707 228.566 49.6061 228.715 49.7095 228.916C49.8328 229.115 49.9385 229.324 50.0253 229.542C50.1718 229.909 50.2646 230.296 50.301 230.69C50.3354 231.42 50.232 231.845 50.2952 231.856Z" fill="#263238"/>
<path d="M42.0122 121.203C42.0122 121.203 36.4648 131.85 36.4648 140.475C36.4648 142.296 46.991 228.481 46.991 228.481L62.9382 227.143L55.9437 147.826L58.4475 130.851L42.0122 121.203Z" fill="#263238"/>
<path d="M77.5214 130.633C77.5214 130.633 73.7944 161.758 72.0429 173.754C70.2168 186.302 66.6162 188.685 66.6162 188.685L37.8056 225.558L26.5156 215.388L51.7831 178.492C51.7831 178.492 58.7086 129.634 58.4674 130.828C58.2262 132.023 77.5214 130.633 77.5214 130.633Z" fill="#263238"/>
<path d="M66.0353 189.195C65.9598 189.333 65.8693 189.462 65.7654 189.58L64.9672 190.654L61.9408 194.547C59.3969 197.884 55.9111 202.443 52.0578 207.485C48.2045 212.527 44.6958 217.11 42.1002 220.366C40.8023 222.003 39.7399 223.306 38.9877 224.202L38.1205 225.224C38.0227 225.346 37.9172 225.461 37.8047 225.569C37.8791 225.432 37.9677 225.303 38.0689 225.184L38.89 224.122L41.9221 220.228C44.4661 216.892 47.9519 212.332 51.8051 207.29C55.6584 202.248 59.1671 197.666 61.7628 194.41C63.0606 192.773 64.123 191.469 64.8696 190.574L65.7424 189.551C65.8304 189.425 65.9283 189.306 66.0353 189.195Z" fill="#455A64"/>
<path d="M49.7748 68.5938C49.7748 68.5938 44.1988 71.9417 42.5219 74.9106C40.8451 77.8795 31.9326 99.6038 32.3001 103.158C32.6676 106.713 41.0346 108.901 41.0346 108.901L49.7748 97.5651L44.5663 94.0335L49.7748 87.5271V68.5938Z" fill="#3AB7E9"/>
<path d="M58.7798 65.7016L49.7754 68.5729C49.7754 68.5729 45.6867 107.416 43.6423 112.992C42.3174 116.899 41.4427 120.945 41.0352 125.051C41.0352 125.051 42.1837 135.911 54.8174 137.398C67.4511 138.885 77.5236 131.431 77.5236 131.431C77.5236 131.431 85.0866 112.268 87.3147 95.9019C89.5429 79.5355 88.0039 70.2153 88.0039 70.2153L74.1527 65.2422L58.7798 65.7016Z" fill="#3AB7E9"/>
<path d="M85.4581 71.3815C85.0677 71.7835 79.5088 75.4703 77.6482 81.7871C75.7876 88.104 73.749 94.6103 73.749 94.6103L66.4961 95.5406L70.5848 112.269C70.5848 112.269 79.3251 111.339 84.1546 103.345C88.9841 95.3511 91.9588 85.5026 91.9588 85.5026C91.9588 85.5026 91.3443 65.2542 85.4581 71.3815Z" fill="#3AB7E9"/>
<path d="M41.0352 108.925C41.0352 108.925 61.2835 112.973 68.6283 104.256L66.4978 96.8594C66.4978 96.8594 53.1233 100.024 48.9427 98.6625L41.0352 108.925Z" fill="#FFBE9D"/>
<path d="M68.9805 95.224C68.9805 95.224 72.0642 88.3329 72.472 88.2468C72.8797 88.1606 78.7888 86.0703 78.7888 86.0703C78.9704 86.5534 78.9704 87.086 78.7888 87.5691L80.9653 87.862C80.9653 87.862 80.6437 89.1771 79.9201 89.3608L80.6896 90.0384C80.3042 90.5524 79.8075 90.9725 79.2367 91.2674C79.0193 91.3765 78.7794 91.4333 78.5361 91.4333C78.2929 91.4333 78.053 91.3765 77.8356 91.2674C77.8356 91.2674 78.1055 91.7612 76.8823 92.5307C75.6591 93.3002 73.5688 94.4373 73.5688 94.4373L68.9805 95.224Z" fill="#FFBE9D"/>
<path d="M68.9609 95.2396C69.0873 94.9583 72.0505 88.3485 72.4582 88.2566C72.8659 88.1648 78.775 86.1032 78.8095 86.0859C78.9813 86.5668 78.9813 87.0924 78.8095 87.5733L80.94 87.8489C80.94 87.9006 80.6184 89.141 79.9121 89.3477L80.6758 90.0196C80.2868 90.5339 79.7887 90.9555 79.2172 91.2543C79.001 91.3534 78.766 91.4047 78.5281 91.4047C78.2903 91.4047 78.0552 91.3534 77.839 91.2543C77.8735 91.3864 77.9022 91.8285 76.8628 92.5004C75.6511 93.2584 73.5722 94.3955 73.555 94.4012L68.9609 95.2396ZM78.8152 86.0917C78.4879 86.2065 72.8716 88.1705 72.4984 88.2624C72.1251 88.3543 70.1037 92.8163 69.0528 95.1994L73.5952 94.4012C73.6756 94.3553 75.7142 93.2527 76.903 92.4947C78.0917 91.7367 77.8562 91.2543 77.8505 91.2543V91.2026L77.8964 91.2313C78.1126 91.3377 78.3503 91.393 78.5913 91.393C78.8322 91.393 79.07 91.3377 79.2861 91.2313C79.8501 90.9362 80.3423 90.5206 80.7275 90.0139L79.9408 89.3248H79.9695C80.6356 89.1582 80.9572 88.0097 80.9974 87.8547L78.8612 87.5848C79.0266 87.0978 79.0102 86.5675 78.8152 86.0917Z" fill="#EB996E"/>
<path d="M78.6365 87.5938C77.3798 88.1989 76.0781 88.7058 74.7431 89.1098C74.2033 89.305 73.6634 89.4544 73.2385 89.6841C72.8615 89.8664 72.5505 90.1614 72.3484 90.5282C71.9981 91.1714 71.866 91.6308 71.8086 91.6136C71.8308 91.1951 71.9466 90.7869 72.1474 90.4191C72.3493 89.9921 72.6836 89.6417 73.1007 89.4199C73.6 89.1937 74.1142 89.0019 74.6397 88.8456C75.9375 88.3253 77.2738 87.9068 78.6365 87.5938Z" fill="#EB996E"/>
<path d="M80.0219 89.3281C79.6915 89.5244 79.3273 89.6569 78.948 89.7186C78.2646 89.9024 77.3056 90.0574 76.2892 90.3331C75.4185 90.5563 74.5994 90.9464 73.8773 91.4816C73.3375 91.9008 73.0963 92.2683 73.0561 92.2396C73.0159 92.2109 73.1997 91.7974 73.7337 91.3093C74.4446 90.6965 75.291 90.2615 76.203 90.0402C77.2482 89.7588 78.213 89.6382 78.8963 89.5119C79.2651 89.4164 79.6419 89.3549 80.0219 89.3281Z" fill="#EB996E"/>
<path d="M74.5703 92.4548C74.923 91.9796 75.4275 91.6392 76.0002 91.4901C76.5382 91.2368 77.1484 91.1819 77.723 91.335C77.723 91.4326 76.9707 91.4843 76.1151 91.7944C75.2594 92.1045 74.6507 92.5467 74.5703 92.4548Z" fill="#EB996E"/>
<path d="M67.1265 97.3293L50.1571 92.5859L45.1094 98.0931C45.1094 98.0931 62.3716 111.623 70.2619 111.404" fill="#FFBE9D"/>
<path d="M70.2635 111.404C69.5536 111.453 68.8405 111.403 68.1445 111.255C66.2535 110.856 64.4178 110.229 62.6775 109.389C58.2213 107.385 52.4672 103.79 46.5178 99.3449L45.0363 98.1964L44.8984 98.093L45.019 97.9609L50.0783 92.4595L50.1414 92.3906H50.2333L62.4191 95.8362L65.9106 96.8584L66.8409 97.1398C66.9486 97.1711 67.0541 97.2095 67.1567 97.2546C67.0434 97.2481 66.9315 97.2269 66.8237 97.1914L65.8876 96.956L62.3674 96.0142L50.1472 92.6605L50.3022 92.6146L45.2545 98.1275V97.892L46.7303 99.0406C52.6911 103.474 58.4108 107.08 62.8096 109.136C64.5317 109.987 66.3445 110.64 68.2134 111.083C68.505 111.153 68.8002 111.206 69.0977 111.244C69.3163 111.28 69.5368 111.303 69.7581 111.312C69.9283 111.333 70.0971 111.363 70.2635 111.404Z" fill="#EB996E"/>
<path d="M78.2239 77.9922C78.1989 78.4506 78.1159 78.9041 77.977 79.3417C77.7875 80.1686 77.5004 81.2999 77.1615 82.5461C76.8227 83.7922 76.5011 84.9178 76.2542 85.7217C76.1496 86.1689 75.9935 86.6025 75.7891 87.0138C75.8141 86.5553 75.8971 86.1019 76.036 85.6643C76.2255 84.8374 76.5126 83.7061 76.8514 82.4599C77.1903 81.2138 77.5118 80.094 77.7588 79.2843C77.8648 78.8375 78.0208 78.404 78.2239 77.9922Z" fill="#263238"/>
<path d="M77.4399 100.696C77.3825 100.696 77.2217 99.8574 76.7967 98.5481C76.5573 97.7851 76.1861 97.0699 75.6999 96.4348C75.1239 95.6608 74.2806 95.1286 73.3339 94.9418C72.3651 94.8959 71.3953 95.0084 70.4627 95.2749L68.0737 95.7457C67.7726 95.7862 67.4775 95.8634 67.1951 95.9754C67.094 96.0163 67.0025 96.0777 66.9263 96.1558C66.8502 96.2339 66.7912 96.327 66.7529 96.4291C66.712 96.5193 66.6908 96.6172 66.6908 96.7162C66.6908 96.8153 66.712 96.9132 66.7529 97.0034C66.7529 97.0034 66.5003 96.8483 66.6094 96.4291C66.6455 96.306 66.7064 96.1915 66.7884 96.0928C66.8703 95.994 66.9716 95.913 67.086 95.8549C67.3764 95.7181 67.6833 95.6196 67.9991 95.562L70.3823 95.0222C71.3552 94.73 72.3712 94.6076 73.3856 94.6604C74.4132 94.8609 75.3265 95.4437 75.9411 96.2913C76.4362 96.9605 76.8023 97.7161 77.0207 98.5194C77.1741 99.0494 77.2949 99.5883 77.3825 100.133C77.4274 100.317 77.4467 100.507 77.4399 100.696Z" fill="#263238"/>
<path d="M79.9249 97.0484C79.4267 96.1583 78.755 95.3772 77.9495 94.7513C76.5713 93.7808 75.1414 93.6028 75.1643 93.5281C75.4732 93.4754 75.7901 93.497 76.0889 93.5913C76.8244 93.7526 77.521 94.057 78.139 94.4872C78.7587 94.9194 79.2698 95.4894 79.6321 96.1525C79.8062 96.4205 79.9071 96.7293 79.9249 97.0484Z" fill="#263238"/>
<path d="M91.9619 85.5C91.9445 85.6223 91.9117 85.742 91.8642 85.856C91.7781 86.1202 91.6632 86.4303 91.5312 86.861C91.2153 87.7683 90.7904 89.0087 90.2678 90.5305C89.7452 92.0523 89.0906 93.9301 88.189 95.9113C87.2874 97.8925 86.2135 100.017 84.9272 102.182C83.719 104.223 82.1801 106.049 80.3733 107.586C78.9038 108.847 77.2524 109.879 75.4749 110.647C74.2768 111.161 73.0159 111.515 71.7249 111.698C71.3747 111.749 71.022 111.782 70.6683 111.795C70.5463 111.81 70.4228 111.81 70.3008 111.795C70.3008 111.761 70.8061 111.738 71.702 111.577C72.9704 111.343 74.2062 110.957 75.383 110.429C79.2608 108.634 82.4954 105.693 84.6515 102.004C85.9206 99.8737 86.9486 97.7145 87.9191 95.7792C88.8896 93.844 89.4811 91.9834 90.0496 90.4501C90.6181 88.9168 91.0775 87.665 91.4106 86.8093L91.8068 85.8273C91.8475 85.7134 91.8995 85.6037 91.9619 85.5Z" fill="#263238"/>
<path d="M86.7086 71.8203C86.743 71.9122 85.3131 72.3946 83.7224 73.3651C82.1317 74.3356 80.9889 75.3061 80.9258 75.2372C82.4621 73.5379 84.479 72.3462 86.7086 71.8203Z" fill="#263238"/>
<path d="M49.1094 85.836C49.1677 84.7708 49.3351 83.7143 49.609 82.6833C49.7757 81.6291 50.0469 80.5942 50.4187 79.5938C50.3641 80.659 50.1986 81.7156 49.9248 82.7464C49.758 83.8012 49.4848 84.8363 49.1094 85.836Z" fill="#263238"/>
<path d="M72.8552 116.227C72.5537 116.404 72.2411 116.561 71.9191 116.697C71.6148 116.841 71.2358 117.013 70.7706 117.186C70.3055 117.358 69.8231 117.576 69.2488 117.76C67.9132 118.229 66.5519 118.622 65.1716 118.937C61.7838 119.711 58.306 120.018 54.8349 119.85C53.4224 119.782 52.015 119.633 50.6198 119.402C50.0169 119.322 49.4713 119.195 49.0177 119.098C48.564 119 48.1448 118.908 47.8175 118.816C47.475 118.744 47.1389 118.644 46.8125 118.518C47.1616 118.547 47.5075 118.606 47.8462 118.696C48.1735 118.765 48.5755 118.851 49.0521 118.92C49.5287 118.989 50.0571 119.109 50.6543 119.178C51.8373 119.351 53.2672 119.483 54.8521 119.552C58.2956 119.687 61.7422 119.382 65.1084 118.644C66.4812 118.345 67.8382 117.977 69.1742 117.542C69.7484 117.369 70.2538 117.168 70.7074 117.008C71.1611 116.847 71.5401 116.703 71.856 116.577C72.1772 116.429 72.5117 116.311 72.8552 116.227Z" fill="#263238"/>
<path d="M57.9979 125.719C56.733 125.558 55.4916 125.247 54.2996 124.795C53.0732 124.443 51.8934 123.945 50.7852 123.313C50.8196 123.227 52.4103 123.83 54.3972 124.461C55.6178 124.82 56.8195 125.24 57.9979 125.719Z" fill="#263238"/>
<g opacity="0.3">
<path d="M65.0318 110.41C63.8373 109.904 62.683 109.221 61.4024 109.026C59.8404 108.79 58.5311 109.255 56.9691 109.497C52.3176 110.226 48.8434 109.675 44.456 109.497L44.2148 110.823C46.1444 112.328 48.5792 112.81 51.0256 112.764C53.2479 112.724 55.4301 112 57.6525 112.063C59.4003 112.206 61.1253 112.553 62.7921 113.097C65.6232 113.849 68.5922 114.372 71.4807 113.872C74.3692 113.373 77.1831 111.684 78.3718 109.02C76.4342 110.331 74.203 111.144 71.8759 111.386C69.5489 111.629 67.198 111.293 65.0318 110.41Z" fill="black"/>
</g>
<g opacity="0.3">
<path d="M51.2969 123.93C52.2404 125.495 53.5364 126.819 55.0817 127.795C56.6271 128.771 58.379 129.372 60.1979 129.552C60.9859 129.648 61.7854 129.582 62.5466 129.356C62.9256 129.242 63.2776 129.053 63.5815 128.799C63.8855 128.545 64.1351 128.233 64.3153 127.881C63.4736 127.33 62.537 126.941 61.5532 126.732L51.406 123.941" fill="black"/>
</g>
<path d="M45.8251 97.9643L39.2843 98.1997C38.6296 98.1997 38.0152 97.6255 37.7395 96.6894L32.7664 79.8809C32.2898 78.2787 32.9789 76.4927 34.0987 76.4353L43.5108 75.861C44.2229 75.8208 44.8833 76.51 45.1302 77.5838L48.5011 91.7968C49.219 94.7542 47.8695 97.8896 45.8251 97.9643Z" fill="#455A64"/>
<path d="M41.2206 90.9228C40.4855 91.6808 36.3853 88.3501 35.1736 88.5971C33.9619 88.844 33.2326 89.5446 33.9045 90.0614C34.5764 90.5783 36.2705 92.2666 36.5346 92.9787C36.5346 92.9787 36.661 89.9983 36.3394 90.4806C36.0178 90.963 35.478 91.7325 36.259 92.0713C37.04 92.4101 35.834 95.0345 36.414 95.3618C37.3785 95.8239 38.3917 96.1764 39.4346 96.4127C40.5043 96.7419 41.5566 97.1252 42.5873 97.5613C44.1677 98.204 45.9289 98.2448 47.5374 97.6761L48.3586 97.389C48.9825 97.1707 49.5223 96.7626 49.9023 96.2219C50.2824 95.6811 50.4835 95.035 50.4776 94.3741L50.4489 91.6579L51.4252 89.4642L49.7024 85.7774L46.8311 84.8242L47.9337 88.241C46.7852 88.8153 44.9016 89.1656 43.9139 88.6315C42.9261 88.0975 39.1475 84.3188 38.4297 84.6806C37.7119 85.0424 37.0744 85.9095 37.7291 86.7365C38.3837 87.5634 41.9441 90.1361 41.2091 90.8998" fill="#FFBE9D"/>
<path d="M26.6055 215.209C26.633 215.149 26.6657 215.091 26.7031 215.037C26.7835 214.916 26.8869 214.75 27.0247 214.549L28.2708 212.682L32.8994 205.843L48.2378 183.349L51.626 178.405V178.474C52.3897 169.286 53.0674 161.194 53.5497 155.371C53.8024 152.5 54.0091 150.157 54.124 148.538C54.1986 147.751 54.2561 147.136 54.2963 146.7C54.2963 146.499 54.3365 146.344 54.348 146.223C54.3393 146.17 54.3393 146.116 54.348 146.062C54.3555 146.116 54.3555 146.17 54.348 146.223C54.348 146.344 54.348 146.505 54.348 146.7C54.3135 147.142 54.2733 147.757 54.2216 148.543C54.101 150.168 53.9287 152.494 53.7105 155.383C53.2511 161.211 52.6079 169.309 51.8844 178.502V178.537V178.571L48.4962 183.516C42.4723 192.273 37.0111 200.204 33.0601 205.964L28.3512 212.746L27.0591 214.583L26.7203 215.054C26.6514 215.163 26.6112 215.215 26.6055 215.209Z" fill="#455A64"/>
<path d="M60.2598 141.461C60.3057 141.536 58.8471 142.449 57.2334 143.81C55.6198 145.171 54.4713 146.44 54.4023 146.382C54.5813 146.046 54.8119 145.74 55.0857 145.475C56.3023 144.119 57.7039 142.942 59.2491 141.978C59.556 141.752 59.8973 141.578 60.2598 141.461Z" fill="#455A64"/>
<path d="M54.5536 146.189C53.8967 146.16 53.2624 145.94 52.7275 145.558C52.1419 145.263 51.6564 144.801 51.332 144.231C51.3952 144.168 51.9982 144.771 52.8825 145.305C53.7669 145.839 54.5536 146.103 54.5536 146.189Z" fill="#455A64"/>
<path d="M76.2714 138.909C76.2714 138.995 74.6979 138.806 72.7626 138.696C70.8274 138.587 69.2596 138.599 69.2539 138.513C70.4196 138.325 71.6044 138.287 72.7799 138.398C73.9608 138.417 75.1343 138.589 76.2714 138.909Z" fill="#455A64"/>
<path d="M42.6808 132.082C42.6808 132.082 42.4626 132.248 42.0376 132.351C41.4813 132.478 40.9052 132.491 40.3435 132.392C39.7837 132.292 39.2502 132.079 38.7758 131.766C38.414 131.525 38.236 131.318 38.2647 131.289C38.941 131.645 39.6584 131.917 40.401 132.099C41.1589 132.184 41.9243 132.178 42.6808 132.082Z" fill="#455A64"/>
<path d="M90.5335 83.9597C90.3935 84.0705 90.2389 84.1613 90.074 84.2296C89.6397 84.4461 89.1884 84.6267 88.7245 84.7694C88.039 84.9901 87.3359 85.1515 86.6227 85.2518C85.7447 85.3602 84.8587 85.389 83.9754 85.338C83.0938 85.2676 82.2208 85.1138 81.3683 84.8785C80.6753 84.6811 80.0009 84.4236 79.3526 84.109C78.915 83.9014 78.4945 83.6594 78.095 83.3855C77.9401 83.2973 77.7989 83.1871 77.6758 83.0581C77.7102 83.0122 78.3362 83.4314 79.4445 83.9195C80.0925 84.2003 80.7605 84.4325 81.4429 84.6144C82.2816 84.8262 83.1363 84.9683 83.9984 85.0393C84.8619 85.0917 85.7283 85.0706 86.5883 84.9762C87.2887 84.8935 87.9818 84.7572 88.6614 84.5684C89.8271 84.2411 90.5105 83.908 90.5335 83.9597Z" fill="white"/>
<path d="M45.9375 81.3359C46.4897 81.355 47.0402 81.4087 47.5856 81.4967C48.1397 81.4874 48.6938 81.5105 49.2452 81.5656C48.7077 81.7566 48.1365 81.8348 47.5674 81.7953C46.9983 81.7558 46.4435 81.5994 45.9375 81.3359Z" fill="white"/>
<path d="M77.0652 81.173C77.0652 81.2591 70.9609 81.8564 63.4151 82.5168C55.8693 83.1772 49.7362 83.6653 49.7305 83.5562C49.7247 83.4471 55.8349 82.8728 63.3864 82.2182C70.9379 81.5635 77.0595 81.0926 77.0652 81.173Z" fill="white"/>
<path d="M72.8554 67.7137C73.1293 67.1819 73.2618 66.5887 73.2401 65.9909L72.551 43.6637C72.8152 37.4502 69.4213 32.1153 63.1963 32.0234H62.6221C59.8294 32.1457 57.1852 33.3148 55.2155 35.2983C53.2458 37.2818 52.0952 39.9342 51.9925 42.7276C51.7915 48.1142 51.6365 54.0693 51.7973 56.9463C52.1303 62.9071 58.1141 63.5733 58.1141 63.5733L58.3094 65.899C58.3094 65.899 57.8442 69.9188 62.5187 71.2971C66.1078 72.3537 70.0472 70.0911 71.7068 69C72.1925 68.6755 72.5877 68.2329 72.8554 67.7137Z" fill="#FFBE9D"/>
<path d="M58.0859 63.6166C60.8566 63.4975 63.5351 62.5868 65.804 60.9922C65.804 60.9922 64.1501 65.3623 58.1778 65.0867L58.0859 63.6166Z" fill="#EB996E"/>
<path d="M55.3164 47.5835C55.3224 47.8054 55.4156 48.0159 55.5757 48.1696C55.7359 48.3233 55.9501 48.4078 56.1721 48.4047C56.2808 48.4093 56.3893 48.392 56.4912 48.3537C56.593 48.3155 56.6861 48.2571 56.7649 48.182C56.8437 48.107 56.9066 48.0168 56.9498 47.9169C56.9929 47.8171 57.0155 47.7095 57.0162 47.6007C57.0102 47.3783 56.9172 47.1671 56.7573 47.0125C56.5973 46.8579 56.383 46.7722 56.1606 46.7738C56.0518 46.7707 55.9435 46.7893 55.8419 46.8285C55.7404 46.8677 55.6476 46.9266 55.5691 47.002C55.4905 47.0773 55.4277 47.1675 55.3844 47.2674C55.341 47.3672 55.3179 47.4746 55.3164 47.5835Z" fill="#263238"/>
<path d="M53.4017 45.6248C53.5109 45.7339 54.1368 45.2286 55.0499 45.1884C55.9629 45.1482 56.6635 45.5789 56.7726 45.464C56.8818 45.3492 56.7037 45.2171 56.3994 45.0161C55.9925 44.7568 55.5143 44.6323 55.0326 44.6601C54.5557 44.6761 54.0967 44.8453 53.7233 45.1424C53.4305 45.3607 53.3386 45.5789 53.4017 45.6248Z" fill="#263238"/>
<path d="M64.1914 47.5938C64.1974 47.8156 64.2906 48.0262 64.4507 48.1799C64.6109 48.3336 64.8251 48.4181 65.0471 48.415C65.1558 48.4196 65.2643 48.4023 65.3662 48.364C65.468 48.3258 65.5611 48.2674 65.6399 48.1923C65.7187 48.1173 65.7816 48.0271 65.8248 47.9272C65.8679 47.8274 65.8905 47.7198 65.8912 47.611C65.8852 47.3891 65.792 47.1785 65.6319 47.0248C65.4717 46.8711 65.2575 46.7867 65.0356 46.7898C64.9269 46.7852 64.8183 46.8025 64.7165 46.8407C64.6146 46.879 64.5215 46.9374 64.4427 47.0124C64.3639 47.0875 64.301 47.1776 64.2579 47.2775C64.2147 47.3774 64.1921 47.485 64.1914 47.5938Z" fill="#263238"/>
<path d="M62.4125 45.4035C62.5217 45.5069 63.1476 45.0016 64.0664 44.9671C64.9852 44.9326 65.6743 45.3576 65.7892 45.2428C65.9041 45.1279 65.7203 44.9901 65.4159 44.7948C65.0097 44.5335 64.5315 44.4069 64.0492 44.433C63.572 44.4527 63.1135 44.6237 62.7399 44.9212C62.447 45.1509 62.3609 45.3576 62.4125 45.4035Z" fill="#263238"/>
<path d="M59.3866 52.3506C58.8976 52.22 58.3939 52.1524 57.8877 52.1496C57.6523 52.1496 57.4283 52.0979 57.3824 51.9372C57.3505 51.698 57.3947 51.4549 57.5087 51.2423L58.1232 49.4276C58.9731 46.8492 59.5818 44.7302 59.4727 44.6957C59.3636 44.6613 58.5941 46.7286 57.7499 49.2898C57.5489 49.9272 57.3537 50.5302 57.1757 51.1102C57.0437 51.4001 57.0153 51.7265 57.0953 52.0348C57.1319 52.117 57.1874 52.1895 57.2572 52.2464C57.327 52.3032 57.4093 52.3429 57.4972 52.3621C57.6271 52.3921 57.7604 52.4037 57.8935 52.3966C58.3911 52.4447 58.8928 52.4293 59.3866 52.3506Z" fill="#263238"/>
<path d="M62.017 41.8292C62.1146 42.0761 63.0277 41.9153 64.1073 42.0015C65.1869 42.0876 66.0713 42.3403 66.2034 42.1106C66.2608 41.9957 66.1 41.7718 65.7382 41.5363C65.2611 41.2557 64.7233 41.0942 64.1705 41.0654C63.6178 41.022 63.0628 41.1106 62.5511 41.3239C62.1663 41.5076 61.9768 41.7143 62.017 41.8292Z" fill="#263238"/>
<path d="M53.6197 42.9622C53.7863 43.1632 54.4065 42.9162 55.1702 42.876C55.934 42.8358 56.5772 42.9507 56.715 42.7267C56.7724 42.6176 56.6633 42.4166 56.3762 42.2329C55.9914 42.0071 55.5458 41.9067 55.1013 41.9457C54.6549 41.9733 54.2278 42.1377 53.8781 42.4166C53.6197 42.6406 53.5393 42.8588 53.6197 42.9622Z" fill="#263238"/>
<path d="M71.8478 49.5363C71.8453 49.3168 71.8874 49.099 71.9717 48.8963C72.0559 48.6936 72.1806 48.5101 72.3379 48.357C72.4953 48.2039 72.6822 48.0845 72.8871 48.0058C73.0921 47.9272 73.311 47.8911 73.5303 47.8997C74.6444 47.9571 75.9078 48.5314 75.9365 50.8341C75.9824 54.9171 71.8765 54.1246 71.865 54.004C71.8535 53.8835 71.8535 51.2419 71.8478 49.5363Z" fill="#FFBE9D"/>
<path d="M72.7355 52.4577C72.7355 52.4577 72.8044 52.5094 72.925 52.5611C73.0966 52.6286 73.2874 52.6286 73.459 52.5611C73.7208 52.3902 73.9326 52.1529 74.0728 51.8735C74.213 51.594 74.2767 51.2824 74.2573 50.9704C74.2614 50.6202 74.1889 50.2732 74.0448 49.954C74.0061 49.8266 73.9366 49.7106 73.8425 49.6165C73.7483 49.5223 73.6324 49.4528 73.505 49.4142C73.4226 49.3931 73.3355 49.4017 73.2588 49.4384C73.1822 49.4752 73.1209 49.5377 73.0858 49.6152C73.0341 49.73 73.0571 49.8104 73.0398 49.8162C73.0226 49.8219 72.9479 49.753 72.9824 49.5807C73.0027 49.4792 73.0575 49.3879 73.1374 49.3223C73.25 49.2396 73.3888 49.2009 73.5279 49.2132C73.6961 49.2453 73.8533 49.3195 73.9849 49.429C74.1165 49.5385 74.2181 49.6796 74.2802 49.8391C74.4595 50.1949 74.5482 50.5894 74.5386 50.9876C74.5386 51.8088 74.1137 52.5841 73.5222 52.7621C73.4134 52.7964 73.2982 52.8049 73.1856 52.787C73.0729 52.769 72.966 52.7251 72.8733 52.6587C72.7412 52.5554 72.7182 52.4635 72.7355 52.4577Z" fill="#EB996E"/>
<path d="M51.9997 42.5978C51.9422 43.4247 50.8856 40.6338 51.3106 39.9217C51.014 40.0051 50.7031 40.0239 50.3987 39.9768C50.0943 39.9298 49.8035 39.8179 49.546 39.6489C49.2885 39.4799 49.0703 39.2576 48.906 38.9971C48.7418 38.7365 48.6353 38.4438 48.5938 38.1385C48.5524 37.8333 48.5768 37.5228 48.6656 37.2278C48.7544 36.9329 48.9054 36.6604 49.1085 36.4289C49.3116 36.1973 49.562 36.0119 49.8428 35.8854C50.1236 35.7588 50.4283 35.6939 50.7363 35.6952C50.528 35.3213 50.45 34.8887 50.5144 34.4656C50.5789 34.0425 50.7822 33.6528 51.0923 33.3579C51.4526 33.1101 51.8654 32.9489 52.2983 32.887C52.2857 32.3811 52.4044 31.8805 52.6428 31.4342C52.8946 30.9442 53.255 30.5183 53.6966 30.189C54.1382 29.8598 54.6493 29.6359 55.1907 29.5345C55.7321 29.4331 56.2896 29.4568 56.8204 29.6039C57.3512 29.7511 57.8414 30.0176 58.2534 30.3833C58.5988 29.9141 59.0532 29.536 59.5774 29.2817C60.1016 29.0274 60.6799 28.9046 61.2622 28.9238C61.8445 28.9431 62.4134 29.1037 62.9197 29.392C63.426 29.6803 63.8545 30.0875 64.1682 30.5785C64.5974 30.3156 65.0795 30.151 65.5799 30.0967C66.0802 30.0424 66.5864 30.0997 67.062 30.2645C67.5375 30.4292 67.9707 30.6973 68.3302 31.0495C68.6898 31.4017 68.9668 31.8292 69.1413 32.3013C69.651 32.0274 70.2361 31.9269 70.8079 32.015C71.3798 32.1031 71.9075 32.3749 72.3112 32.7894C72.5883 33.1807 72.8914 33.553 73.2186 33.9035C73.6879 34.1951 74.184 34.4412 74.7001 34.6385C75.061 34.856 75.3696 35.1503 75.604 35.5004C75.8385 35.8505 75.9929 36.248 76.0565 36.6645C76.1201 37.0811 76.0912 37.5065 75.9719 37.9106C75.8526 38.3147 75.6459 38.6877 75.3663 39.0029C75.9556 39.4323 76.4698 39.9562 76.8881 40.5534C77.0957 40.8532 77.229 41.198 77.277 41.5595C77.3249 41.921 77.2861 42.2887 77.1637 42.6322C76.8192 43.4362 75.9061 43.8784 75.5673 44.6881C75.4122 45.0556 75.395 45.4748 75.2457 45.8366C75.1109 46.138 74.9138 46.4075 74.6674 46.6272C74.4209 46.847 74.1307 47.012 73.8158 47.1114C73.431 48.7538 72.2825 49.2018 72.2481 49.6841C71.915 54.7606 69.8247 51.8146 68.7738 41.1104C68.5269 38.5952 69.4457 37.3146 67.4645 35.7698C67.204 36.0898 66.9605 36.4234 66.7352 36.769C66.4307 37.1296 66.0542 37.4225 65.6298 37.6289C65.2054 37.8353 64.7425 37.9506 64.2708 37.9673C63.7992 37.9841 63.3293 37.902 62.8913 37.7263C62.4533 37.5506 62.0569 37.2851 61.7276 36.947C61.5 37.3417 61.1816 37.6766 60.7989 37.9239C60.4163 38.1712 59.9802 38.3239 59.5269 38.3693C59.0735 38.4148 58.6158 38.3517 58.1917 38.1852C57.7675 38.0188 57.3891 37.7538 57.0876 37.4122C56.3526 38.0669 54.647 39.1752 53.3549 37.9865C52.566 39.4037 52.103 40.979 51.9997 42.5978Z" fill="#263238"/>
<path d="M59.1498 54.4006C59.2804 54.7805 59.464 55.1401 59.6953 55.4687C59.8137 55.6304 59.9649 55.7651 60.1391 55.8641C60.3133 55.9631 60.5066 56.024 60.706 56.0429C60.92 56.047 61.1314 55.9963 61.3203 55.8959C61.5092 55.7954 61.6694 55.6483 61.7856 55.4687C62.0149 55.1017 62.1215 54.6713 62.09 54.2398C62.09 53.855 61.8947 53.3899 61.5157 53.3439C61.3547 53.341 61.1952 53.3765 61.0506 53.4473L59.0234 54.2685" fill="#EB996E"/>
<path d="M59.9378 56.0679C60.3029 56.0862 60.6685 56.0395 61.0174 55.93C61.3707 55.7913 61.6608 55.5277 61.8328 55.1892C61.9256 54.9814 61.9736 54.7564 61.9736 54.5288C61.9736 54.3013 61.9256 54.0762 61.8328 53.8684C61.786 53.7602 61.7262 53.658 61.6548 53.5641C61.5801 53.4837 61.5916 53.4837 61.5055 53.5009C61.3935 53.5353 61.2841 53.5775 61.1781 53.6273L60.8508 53.7593C60.4144 53.9374 60.0239 54.0867 59.7023 54.213C59.356 54.3798 58.986 54.4922 58.6055 54.5461C58.9057 54.3024 59.243 54.1085 59.6047 53.9718C59.9205 53.8168 60.3053 53.6387 60.7532 53.4492L61.0805 53.3057C61.1994 53.2458 61.3222 53.194 61.4481 53.1506C61.5447 53.1165 61.6501 53.1165 61.7467 53.1506C61.8359 53.1861 61.9134 53.2458 61.9706 53.3229C62.0636 53.4406 62.1408 53.5699 62.2003 53.7076C62.309 53.9657 62.3597 54.2445 62.3488 54.5244C62.3379 54.8042 62.2656 55.0782 62.1372 55.3271C62.0286 55.5257 61.8819 55.7009 61.7055 55.8428C61.5291 55.9847 61.3265 56.0904 61.1092 56.154C60.8273 56.247 60.5248 56.259 60.2364 56.1885C60.0239 56.154 59.9263 56.0851 59.9378 56.0679Z" fill="#263238"/>
<path d="M255 243.587C255 243.673 197.907 243.742 127.514 243.742C57.1216 243.742 0 243.673 0 243.587C0 243.501 57.0814 243.438 127.52 243.438C197.959 243.438 255 243.506 255 243.587Z" fill="#263238"/>
</svg>
